<?xml version="1.0" ?><svg enable-background="new 0 0 52 52" id="Layer_1" version="1.1" viewBox="0 0 52 52" xml:space="preserve" xmlns="http://www.w3.org/2000/svg" xmlns:xlink="http://www.w3.org/1999/xlink"><g><path d="M30.623291,9.8746033c-6.0599976,0-11,4.9400024-11,11c0,2.821228,1.104126,5.5289917,3.0292358,7.5609131   L10.6696777,40.4183655c-0.390625,0.390625-0.390625,1.0234375,0,1.4140625   c0.1953125,0.1953125,0.4511719,0.2929688,0.7070313,0.2929688s0.5117188-0.0976563,0.7070313-0.2929688l12.0695801-12.0695801   c1.8737793,1.3648071,4.133606,2.1117554,6.4699707,2.1117554c6.0700073,0,11-4.9299927,11-11   C41.623291,14.8146057,36.6932983,9.8746033,30.623291,9.8746033z M30.626709,15.8753967c-2.7568359,0-5,2.2431641-5,5   c0,0.5522461-0.4472656,1-1,1s-1-0.4477539-1-1c0-3.8598633,3.140625-7,7-7c0.5527344,0,1,0.4477539,1,1   S31.1794434,15.8753967,30.626709,15.8753967z" fill="#F93E2B"/></g></svg>